<svg xmlns="http://www.w3.org/2000/svg" viewBox="0 0 900 598" width="900" height="598" role="img" aria-label="2013-01 — month audit">
<rect width="900" height="598" fill="#0b0f14"/>
<text x="40" y="46" font-family="system-ui,-apple-system,'Segoe UI',Roboto,Helvetica,Arial,sans-serif" font-size="21" font-weight="700" fill="#e6eaef">2013-01 — month audit</text>
<text x="40" y="70" font-family="system-ui,-apple-system,'Segoe UI',Roboto,Helvetica,Arial,sans-serif" font-size="13" fill="#8a94a6">Every index and sector, 2013-01-01 to 2013-01-31</text>
<line x1="233.5" y1="98" x2="233.5" y2="538.0" stroke="#1c2430" stroke-width="1"/><text x="233.5" y="90" text-anchor="middle" font-family="system-ui,-apple-system,'Segoe UI',Roboto,Helvetica,Arial,sans-serif" font-size="10.5" fill="#8a94a6">-10%</text><line x1="351.7" y1="98" x2="351.7" y2="538.0" stroke="#1c2430" stroke-width="1"/><text x="351.7" y="90" text-anchor="middle" font-family="system-ui,-apple-system,'Segoe UI',Roboto,Helvetica,Arial,sans-serif" font-size="10.5" fill="#8a94a6">-5%</text><line x1="470.0" y1="98" x2="470.0" y2="538.0" stroke="#383835" stroke-width="1.5"/><text x="470.0" y="90" text-anchor="middle" font-family="system-ui,-apple-system,'Segoe UI',Roboto,Helvetica,Arial,sans-serif" font-size="10.5" fill="#8a94a6">0%</text><line x1="588.3" y1="98" x2="588.3" y2="538.0" stroke="#1c2430" stroke-width="1"/><text x="588.3" y="90" text-anchor="middle" font-family="system-ui,-apple-system,'Segoe UI',Roboto,Helvetica,Arial,sans-serif" font-size="10.5" fill="#8a94a6">+5%</text><line x1="706.5" y1="98" x2="706.5" y2="538.0" stroke="#1c2430" stroke-width="1"/><text x="706.5" y="90" text-anchor="middle" font-family="system-ui,-apple-system,'Segoe UI',Roboto,Helvetica,Arial,sans-serif" font-size="10.5" fill="#8a94a6">+10%</text><path d="M470.00000000000006,116 L761.6521739130435,116 Q765.6521739130435,116 765.6521739130435,120 L765.6521739130435,132 Q765.6521739130435,136 761.6521739130435,136 L470.00000000000006,136 Z" fill="#199e70"/><text x="116" y="130.0" text-anchor="end" font-family="system-ui,-apple-system,'Segoe UI',Roboto,Helvetica,Arial,sans-serif" font-size="12" font-weight="400" fill="#8a94a6">IT</text><text x="775.7" y="130.0" text-anchor="start" font-family="system-ui,-apple-system,'Segoe UI',Roboto,Helvetica,Arial,sans-serif" font-size="11.5" font-weight="600" fill="#e6eaef">+12.5%</text><path d="M470.00000000000006,150 L579.5206181456922,150 Q583.5206181456922,150 583.5206181456922,154 L583.5206181456922,166 Q583.5206181456922,170 579.5206181456922,170 L470.00000000000006,170 Z" fill="#199e70"/><text x="116" y="164.0" text-anchor="end" font-family="system-ui,-apple-system,'Segoe UI',Roboto,Helvetica,Arial,sans-serif" font-size="12" font-weight="400" fill="#8a94a6">Realty</text><text x="593.5" y="164.0" text-anchor="start" font-family="system-ui,-apple-system,'Segoe UI',Roboto,Helvetica,Arial,sans-serif" font-size="11.5" font-weight="600" fill="#e6eaef">+4.8%</text><path d="M470.00000000000006,184 L535.3020255213601,184 Q539.3020255213601,184 539.3020255213601,188 L539.3020255213601,200 Q539.3020255213601,204 535.3020255213601,204 L470.00000000000006,204 Z" fill="#199e70"/><text x="116" y="198.0" text-anchor="end" font-family="system-ui,-apple-system,'Segoe UI',Roboto,Helvetica,Arial,sans-serif" font-size="12" font-weight="400" fill="#8a94a6">Media</text><text x="549.3" y="198.0" text-anchor="start" font-family="system-ui,-apple-system,'Segoe UI',Roboto,Helvetica,Arial,sans-serif" font-size="11.5" font-weight="600" fill="#e6eaef">+2.9%</text><path d="M470.00000000000006,218 L523.0174498404332,218 Q527.0174498404332,218 527.0174498404332,222 L527.0174498404332,234 Q527.0174498404332,238 523.0174498404332,238 L470.00000000000006,238 Z" fill="#199e70"/><text x="116" y="232.0" text-anchor="end" font-family="system-ui,-apple-system,'Segoe UI',Roboto,Helvetica,Arial,sans-serif" font-size="12" font-weight="700" fill="#e6eaef">Sensex</text><text x="537.0" y="232.0" text-anchor="start" font-family="system-ui,-apple-system,'Segoe UI',Roboto,Helvetica,Arial,sans-serif" font-size="11.5" font-weight="600" fill="#e6eaef">+2.4%</text><path d="M470.00000000000006,252 L517.9345024735088,252 Q521.9345024735088,252 521.9345024735088,256 L521.9345024735088,268 Q521.9345024735088,272 517.9345024735088,272 L470.00000000000006,272 Z" fill="#199e70"/><text x="116" y="266.0" text-anchor="end" font-family="system-ui,-apple-system,'Segoe UI',Roboto,Helvetica,Arial,sans-serif" font-size="12" font-weight="700" fill="#e6eaef">Nifty 50</text><text x="531.9" y="266.0" text-anchor="start" font-family="system-ui,-apple-system,'Segoe UI',Roboto,Helvetica,Arial,sans-serif" font-size="11.5" font-weight="600" fill="#e6eaef">+2.2%</text><path d="M470.00000000000006,286 L510.43868766937067,286 Q514.4386876693707,286 514.4386876693707,290 L514.4386876693707,302 Q514.4386876693707,306 510.43868766937067,306 L470.00000000000006,306 Z" fill="#199e70"/><text x="116" y="300.0" text-anchor="end" font-family="system-ui,-apple-system,'Segoe UI',Roboto,Helvetica,Arial,sans-serif" font-size="12" font-weight="700" fill="#e6eaef">Bank Nifty</text><text x="524.4" y="300.0" text-anchor="start" font-family="system-ui,-apple-system,'Segoe UI',Roboto,Helvetica,Arial,sans-serif" font-size="11.5" font-weight="600" fill="#e6eaef">+1.9%</text><path d="M470.00000000000006,320 L491.856226562793,320 Q495.856226562793,320 495.856226562793,324 L495.856226562793,336 Q495.856226562793,340 491.856226562793,340 L470.00000000000006,340 Z" fill="#199e70"/><text x="116" y="334.0" text-anchor="end" font-family="system-ui,-apple-system,'Segoe UI',Roboto,Helvetica,Arial,sans-serif" font-size="12" font-weight="700" fill="#e6eaef">Nifty 500</text><text x="505.9" y="334.0" text-anchor="start" font-family="system-ui,-apple-system,'Segoe UI',Roboto,Helvetica,Arial,sans-serif" font-size="11.5" font-weight="600" fill="#e6eaef">+1.1%</text><path d="M470.00000000000006,354 L482.29157268924115,354 Q486.29157268924115,354 486.29157268924115,358 L486.29157268924115,370 Q486.29157268924115,374 482.29157268924115,374 L470.00000000000006,374 Z" fill="#199e70"/><text x="116" y="368.0" text-anchor="end" font-family="system-ui,-apple-system,'Segoe UI',Roboto,Helvetica,Arial,sans-serif" font-size="12" font-weight="400" fill="#8a94a6">PSU Bank</text><text x="496.3" y="368.0" text-anchor="start" font-family="system-ui,-apple-system,'Segoe UI',Roboto,Helvetica,Arial,sans-serif" font-size="11.5" font-weight="600" fill="#e6eaef">+0.7%</text><path d="M470.00000000000006,388 L480.0442854359368,388 Q484.0442854359368,388 484.0442854359368,392 L484.0442854359368,404 Q484.0442854359368,408 480.0442854359368,408 L470.00000000000006,408 Z" fill="#199e70"/><text x="116" y="402.0" text-anchor="end" font-family="system-ui,-apple-system,'Segoe UI',Roboto,Helvetica,Arial,sans-serif" font-size="12" font-weight="400" fill="#8a94a6">FMCG</text><text x="494.0" y="402.0" text-anchor="start" font-family="system-ui,-apple-system,'Segoe UI',Roboto,Helvetica,Arial,sans-serif" font-size="11.5" font-weight="600" fill="#e6eaef">+0.6%</text><path d="M470.00000000000006,422 L434.90273833542335,422 Q430.90273833542335,422 430.90273833542335,426 L430.90273833542335,438 Q430.90273833542335,442 434.90273833542335,442 L470.00000000000006,442 Z" fill="#d95926"/><text x="116" y="436.0" text-anchor="end" font-family="system-ui,-apple-system,'Segoe UI',Roboto,Helvetica,Arial,sans-serif" font-size="12" font-weight="400" fill="#8a94a6">Pharma</text><text x="420.9" y="436.0" text-anchor="end" font-family="system-ui,-apple-system,'Segoe UI',Roboto,Helvetica,Arial,sans-serif" font-size="11.5" font-weight="600" fill="#e6eaef">-1.7%</text><path d="M470.00000000000006,456 L434.6739165768359,456 Q430.6739165768359,456 430.6739165768359,460 L430.6739165768359,472 Q430.6739165768359,476 434.6739165768359,476 L470.00000000000006,476 Z" fill="#d95926"/><text x="116" y="470.0" text-anchor="end" font-family="system-ui,-apple-system,'Segoe UI',Roboto,Helvetica,Arial,sans-serif" font-size="12" font-weight="700" fill="#e6eaef">Midcap 100</text><text x="420.7" y="470.0" text-anchor="end" font-family="system-ui,-apple-system,'Segoe UI',Roboto,Helvetica,Arial,sans-serif" font-size="11.5" font-weight="600" fill="#e6eaef">-1.7%</text><path d="M470.00000000000006,490 L370.4192630822588,490 Q366.4192630822588,490 366.4192630822588,494 L366.4192630822588,506 Q366.4192630822588,510 370.4192630822588,510 L470.00000000000006,510 Z" fill="#d95926"/><text x="116" y="504.0" text-anchor="end" font-family="system-ui,-apple-system,'Segoe UI',Roboto,Helvetica,Arial,sans-serif" font-size="12" font-weight="400" fill="#8a94a6">Metal</text><text x="356.4" y="504.0" text-anchor="end" font-family="system-ui,-apple-system,'Segoe UI',Roboto,Helvetica,Arial,sans-serif" font-size="11.5" font-weight="600" fill="#e6eaef">-4.4%</text><text x="810" y="76" text-anchor="end" font-family="system-ui,-apple-system,'Segoe UI',Roboto,Helvetica,Arial,sans-serif" font-size="10.5" fill="#8a94a6">bold = index · light = sector</text>
<text x="40" y="580" font-family="system-ui,-apple-system,'Segoe UI',Roboto,Helvetica,Arial,sans-serif" font-size="11" fill="#8a94a6">Source: The Retail Trader, computed from NSE / BSE daily closes</text>
</svg>