<svg xmlns="http://www.w3.org/2000/svg" viewBox="0 0 900 598" width="900" height="598" role="img" aria-label="2021-05 — month audit">
<rect width="900" height="598" fill="#0b0f14"/>
<text x="40" y="46" font-family="system-ui,-apple-system,'Segoe UI',Roboto,Helvetica,Arial,sans-serif" font-size="21" font-weight="700" fill="#e6eaef">2021-05 — month audit</text>
<text x="40" y="70" font-family="system-ui,-apple-system,'Segoe UI',Roboto,Helvetica,Arial,sans-serif" font-size="13" fill="#8a94a6">Every index and sector, 2021-05-01 to 2021-05-31</text>
<line x1="156.7" y1="98" x2="156.7" y2="538.0" stroke="#1c2430" stroke-width="1"/><text x="156.7" y="90" text-anchor="middle" font-family="system-ui,-apple-system,'Segoe UI',Roboto,Helvetica,Arial,sans-serif" font-size="10.5" fill="#8a94a6">-20%</text><line x1="235.1" y1="98" x2="235.1" y2="538.0" stroke="#1c2430" stroke-width="1"/><text x="235.1" y="90" text-anchor="middle" font-family="system-ui,-apple-system,'Segoe UI',Roboto,Helvetica,Arial,sans-serif" font-size="10.5" fill="#8a94a6">-15%</text><line x1="313.4" y1="98" x2="313.4" y2="538.0" stroke="#1c2430" stroke-width="1"/><text x="313.4" y="90" text-anchor="middle" font-family="system-ui,-apple-system,'Segoe UI',Roboto,Helvetica,Arial,sans-serif" font-size="10.5" fill="#8a94a6">-10%</text><line x1="391.7" y1="98" x2="391.7" y2="538.0" stroke="#1c2430" stroke-width="1"/><text x="391.7" y="90" text-anchor="middle" font-family="system-ui,-apple-system,'Segoe UI',Roboto,Helvetica,Arial,sans-serif" font-size="10.5" fill="#8a94a6">-5%</text><line x1="470.0" y1="98" x2="470.0" y2="538.0" stroke="#383835" stroke-width="1.5"/><text x="470.0" y="90" text-anchor="middle" font-family="system-ui,-apple-system,'Segoe UI',Roboto,Helvetica,Arial,sans-serif" font-size="10.5" fill="#8a94a6">0%</text><line x1="548.3" y1="98" x2="548.3" y2="538.0" stroke="#1c2430" stroke-width="1"/><text x="548.3" y="90" text-anchor="middle" font-family="system-ui,-apple-system,'Segoe UI',Roboto,Helvetica,Arial,sans-serif" font-size="10.5" fill="#8a94a6">+5%</text><line x1="626.6" y1="98" x2="626.6" y2="538.0" stroke="#1c2430" stroke-width="1"/><text x="626.6" y="90" text-anchor="middle" font-family="system-ui,-apple-system,'Segoe UI',Roboto,Helvetica,Arial,sans-serif" font-size="10.5" fill="#8a94a6">+10%</text><line x1="704.9" y1="98" x2="704.9" y2="538.0" stroke="#1c2430" stroke-width="1"/><text x="704.9" y="90" text-anchor="middle" font-family="system-ui,-apple-system,'Segoe UI',Roboto,Helvetica,Arial,sans-serif" font-size="10.5" fill="#8a94a6">+15%</text><line x1="783.3" y1="98" x2="783.3" y2="538.0" stroke="#1c2430" stroke-width="1"/><text x="783.3" y="90" text-anchor="middle" font-family="system-ui,-apple-system,'Segoe UI',Roboto,Helvetica,Arial,sans-serif" font-size="10.5" fill="#8a94a6">+20%</text><path d="M470,116 L761.6521739130435,116 Q765.6521739130435,116 765.6521739130435,120 L765.6521739130435,132 Q765.6521739130435,136 761.6521739130435,136 L470,136 Z" fill="#199e70"/><text x="116" y="130.0" text-anchor="end" font-family="system-ui,-apple-system,'Segoe UI',Roboto,Helvetica,Arial,sans-serif" font-size="12" font-weight="400" fill="#8a94a6">PSU Bank</text><text x="775.7" y="130.0" text-anchor="start" font-family="system-ui,-apple-system,'Segoe UI',Roboto,Helvetica,Arial,sans-serif" font-size="11.5" font-weight="600" fill="#e6eaef">+18.9%</text><path d="M470,150 L706.6162195748183,150 Q710.6162195748183,150 710.6162195748183,154 L710.6162195748183,166 Q710.6162195748183,170 706.6162195748183,170 L470,170 Z" fill="#199e70"/><text x="116" y="164.0" text-anchor="end" font-family="system-ui,-apple-system,'Segoe UI',Roboto,Helvetica,Arial,sans-serif" font-size="12" font-weight="400" fill="#8a94a6">Media</text><text x="720.6" y="164.0" text-anchor="start" font-family="system-ui,-apple-system,'Segoe UI',Roboto,Helvetica,Arial,sans-serif" font-size="11.5" font-weight="600" fill="#e6eaef">+15.4%</text><path d="M470,184 L597.1462259421758,184 Q601.1462259421758,184 601.1462259421758,188 L601.1462259421758,200 Q601.1462259421758,204 597.1462259421758,204 L470,204 Z" fill="#199e70"/><text x="116" y="198.0" text-anchor="end" font-family="system-ui,-apple-system,'Segoe UI',Roboto,Helvetica,Arial,sans-serif" font-size="12" font-weight="700" fill="#e6eaef">Bank Nifty</text><text x="611.1" y="198.0" text-anchor="start" font-family="system-ui,-apple-system,'Segoe UI',Roboto,Helvetica,Arial,sans-serif" font-size="11.5" font-weight="600" fill="#e6eaef">+8.4%</text><path d="M470,218 L577.2991137537472,218 Q581.2991137537472,218 581.2991137537472,222 L581.2991137537472,234 Q581.2991137537472,238 577.2991137537472,238 L470,238 Z" fill="#199e70"/><text x="116" y="232.0" text-anchor="end" font-family="system-ui,-apple-system,'Segoe UI',Roboto,Helvetica,Arial,sans-serif" font-size="12" font-weight="400" fill="#8a94a6">Realty</text><text x="591.3" y="232.0" text-anchor="start" font-family="system-ui,-apple-system,'Segoe UI',Roboto,Helvetica,Arial,sans-serif" font-size="11.5" font-weight="600" fill="#e6eaef">+7.1%</text><path d="M470,252 L575.1958046644147,252 Q579.1958046644147,252 579.1958046644147,256 L579.1958046644147,268 Q579.1958046644147,272 575.1958046644147,272 L470,272 Z" fill="#199e70"/><text x="116" y="266.0" text-anchor="end" font-family="system-ui,-apple-system,'Segoe UI',Roboto,Helvetica,Arial,sans-serif" font-size="12" font-weight="700" fill="#e6eaef">Nifty 500</text><text x="589.2" y="266.0" text-anchor="start" font-family="system-ui,-apple-system,'Segoe UI',Roboto,Helvetica,Arial,sans-serif" font-size="11.5" font-weight="600" fill="#e6eaef">+7.0%</text><path d="M470,286 L568.2495897767894,286 Q572.2495897767894,286 572.2495897767894,290 L572.2495897767894,302 Q572.2495897767894,306 568.2495897767894,306 L470,306 Z" fill="#199e70"/><text x="116" y="300.0" text-anchor="end" font-family="system-ui,-apple-system,'Segoe UI',Roboto,Helvetica,Arial,sans-serif" font-size="12" font-weight="700" fill="#e6eaef">Midcap 100</text><text x="582.2" y="300.0" text-anchor="start" font-family="system-ui,-apple-system,'Segoe UI',Roboto,Helvetica,Arial,sans-serif" font-size="11.5" font-weight="600" fill="#e6eaef">+6.5%</text><path d="M470,320 L567.8809692641111,320 Q571.8809692641111,320 571.8809692641111,324 L571.8809692641111,336 Q571.8809692641111,340 567.8809692641111,340 L470,340 Z" fill="#199e70"/><text x="116" y="334.0" text-anchor="end" font-family="system-ui,-apple-system,'Segoe UI',Roboto,Helvetica,Arial,sans-serif" font-size="12" font-weight="700" fill="#e6eaef">Nifty 50</text><text x="581.9" y="334.0" text-anchor="start" font-family="system-ui,-apple-system,'Segoe UI',Roboto,Helvetica,Arial,sans-serif" font-size="11.5" font-weight="600" fill="#e6eaef">+6.5%</text><path d="M470,354 L567.3018895482867,354 Q571.3018895482867,354 571.3018895482867,358 L571.3018895482867,370 Q571.3018895482867,374 567.3018895482867,374 L470,374 Z" fill="#199e70"/><text x="116" y="368.0" text-anchor="end" font-family="system-ui,-apple-system,'Segoe UI',Roboto,Helvetica,Arial,sans-serif" font-size="12" font-weight="700" fill="#e6eaef">Sensex</text><text x="581.3" y="368.0" text-anchor="start" font-family="system-ui,-apple-system,'Segoe UI',Roboto,Helvetica,Arial,sans-serif" font-size="11.5" font-weight="600" fill="#e6eaef">+6.5%</text><path d="M470,388 L554.5290265677072,388 Q558.5290265677072,388 558.5290265677072,392 L558.5290265677072,404 Q558.5290265677072,408 554.5290265677072,408 L470,408 Z" fill="#199e70"/><text x="116" y="402.0" text-anchor="end" font-family="system-ui,-apple-system,'Segoe UI',Roboto,Helvetica,Arial,sans-serif" font-size="12" font-weight="400" fill="#8a94a6">IT</text><text x="568.5" y="402.0" text-anchor="start" font-family="system-ui,-apple-system,'Segoe UI',Roboto,Helvetica,Arial,sans-serif" font-size="11.5" font-weight="600" fill="#e6eaef">+5.7%</text><path d="M470,422 L533.7364595537589,422 Q537.7364595537589,422 537.7364595537589,426 L537.7364595537589,438 Q537.7364595537589,442 533.7364595537589,442 L470,442 Z" fill="#199e70"/><text x="116" y="436.0" text-anchor="end" font-family="system-ui,-apple-system,'Segoe UI',Roboto,Helvetica,Arial,sans-serif" font-size="12" font-weight="400" fill="#8a94a6">Pharma</text><text x="547.7" y="436.0" text-anchor="start" font-family="system-ui,-apple-system,'Segoe UI',Roboto,Helvetica,Arial,sans-serif" font-size="11.5" font-weight="600" fill="#e6eaef">+4.3%</text><path d="M470,456 L533.1362977927286,456 Q537.1362977927286,456 537.1362977927286,460 L537.1362977927286,472 Q537.1362977927286,476 533.1362977927286,476 L470,476 Z" fill="#199e70"/><text x="116" y="470.0" text-anchor="end" font-family="system-ui,-apple-system,'Segoe UI',Roboto,Helvetica,Arial,sans-serif" font-size="12" font-weight="400" fill="#8a94a6">Metal</text><text x="547.1" y="470.0" text-anchor="start" font-family="system-ui,-apple-system,'Segoe UI',Roboto,Helvetica,Arial,sans-serif" font-size="11.5" font-weight="600" fill="#e6eaef">+4.3%</text><path d="M470,490 L525.0230241481762,490 Q529.0230241481762,490 529.0230241481762,494 L529.0230241481762,506 Q529.0230241481762,510 525.0230241481762,510 L470,510 Z" fill="#199e70"/><text x="116" y="504.0" text-anchor="end" font-family="system-ui,-apple-system,'Segoe UI',Roboto,Helvetica,Arial,sans-serif" font-size="12" font-weight="400" fill="#8a94a6">FMCG</text><text x="539.0" y="504.0" text-anchor="start" font-family="system-ui,-apple-system,'Segoe UI',Roboto,Helvetica,Arial,sans-serif" font-size="11.5" font-weight="600" fill="#e6eaef">+3.8%</text><text x="810" y="76" text-anchor="end" font-family="system-ui,-apple-system,'Segoe UI',Roboto,Helvetica,Arial,sans-serif" font-size="10.5" fill="#8a94a6">bold = index · light = sector</text>
<text x="40" y="580" font-family="system-ui,-apple-system,'Segoe UI',Roboto,Helvetica,Arial,sans-serif" font-size="11" fill="#8a94a6">Source: The Retail Trader, computed from NSE / BSE daily closes</text>
</svg>