<svg xmlns="http://www.w3.org/2000/svg" viewBox="0 0 900 598" width="900" height="598" role="img" aria-label="2018-09 — month audit">
<rect width="900" height="598" fill="#0b0f14"/>
<text x="40" y="46" font-family="system-ui,-apple-system,'Segoe UI',Roboto,Helvetica,Arial,sans-serif" font-size="21" font-weight="700" fill="#e6eaef">2018-09 — month audit</text>
<text x="40" y="70" font-family="system-ui,-apple-system,'Segoe UI',Roboto,Helvetica,Arial,sans-serif" font-size="13" fill="#8a94a6">Every index and sector, 2018-09-01 to 2018-09-31</text>
<line x1="180.0" y1="98" x2="180.0" y2="538.0" stroke="#1c2430" stroke-width="1"/><text x="180.0" y="90" text-anchor="middle" font-family="system-ui,-apple-system,'Segoe UI',Roboto,Helvetica,Arial,sans-serif" font-size="10.5" fill="#8a94a6">-20%</text><line x1="325.0" y1="98" x2="325.0" y2="538.0" stroke="#1c2430" stroke-width="1"/><text x="325.0" y="90" text-anchor="middle" font-family="system-ui,-apple-system,'Segoe UI',Roboto,Helvetica,Arial,sans-serif" font-size="10.5" fill="#8a94a6">-10%</text><line x1="470.0" y1="98" x2="470.0" y2="538.0" stroke="#383835" stroke-width="1.5"/><text x="470.0" y="90" text-anchor="middle" font-family="system-ui,-apple-system,'Segoe UI',Roboto,Helvetica,Arial,sans-serif" font-size="10.5" fill="#8a94a6">0%</text><line x1="615.0" y1="98" x2="615.0" y2="538.0" stroke="#1c2430" stroke-width="1"/><text x="615.0" y="90" text-anchor="middle" font-family="system-ui,-apple-system,'Segoe UI',Roboto,Helvetica,Arial,sans-serif" font-size="10.5" fill="#8a94a6">+10%</text><line x1="760.0" y1="98" x2="760.0" y2="538.0" stroke="#1c2430" stroke-width="1"/><text x="760.0" y="90" text-anchor="middle" font-family="system-ui,-apple-system,'Segoe UI',Roboto,Helvetica,Arial,sans-serif" font-size="10.5" fill="#8a94a6">+20%</text><path d="M470,116 L470,116 Q472.44375929090234,116 472.44375929090234,118.44375929090235 L472.44375929090234,133.55624070909766 Q472.44375929090234,136 470,136 L470,136 Z" fill="#199e70"/><text x="116" y="130.0" text-anchor="end" font-family="system-ui,-apple-system,'Segoe UI',Roboto,Helvetica,Arial,sans-serif" font-size="12" font-weight="400" fill="#8a94a6">IT</text><text x="482.4" y="130.0" text-anchor="start" font-family="system-ui,-apple-system,'Segoe UI',Roboto,Helvetica,Arial,sans-serif" font-size="11.5" font-weight="600" fill="#e6eaef">+0.2%</text><path d="M470,150 L415.60552671566,150 Q411.60552671566,150 411.60552671566,154 L411.60552671566,166 Q411.60552671566,170 415.60552671566,170 L470,170 Z" fill="#d95926"/><text x="116" y="164.0" text-anchor="end" font-family="system-ui,-apple-system,'Segoe UI',Roboto,Helvetica,Arial,sans-serif" font-size="12" font-weight="400" fill="#8a94a6">Pharma</text><text x="401.6" y="164.0" text-anchor="end" font-family="system-ui,-apple-system,'Segoe UI',Roboto,Helvetica,Arial,sans-serif" font-size="11.5" font-weight="600" fill="#e6eaef">-4.0%</text><path d="M470,184 L411.0855225010696,184 Q407.0855225010696,184 407.0855225010696,188 L407.0855225010696,200 Q407.0855225010696,204 411.0855225010696,204 L470,204 Z" fill="#d95926"/><text x="116" y="198.0" text-anchor="end" font-family="system-ui,-apple-system,'Segoe UI',Roboto,Helvetica,Arial,sans-serif" font-size="12" font-weight="400" fill="#8a94a6">Metal</text><text x="397.1" y="198.0" text-anchor="end" font-family="system-ui,-apple-system,'Segoe UI',Roboto,Helvetica,Arial,sans-serif" font-size="11.5" font-weight="600" fill="#e6eaef">-4.3%</text><path d="M470,218 L383.2845699773775,218 Q379.2845699773775,218 379.2845699773775,222 L379.2845699773775,234 Q379.2845699773775,238 383.2845699773775,238 L470,238 Z" fill="#d95926"/><text x="116" y="232.0" text-anchor="end" font-family="system-ui,-apple-system,'Segoe UI',Roboto,Helvetica,Arial,sans-serif" font-size="12" font-weight="700" fill="#e6eaef">Sensex</text><text x="369.3" y="232.0" text-anchor="end" font-family="system-ui,-apple-system,'Segoe UI',Roboto,Helvetica,Arial,sans-serif" font-size="11.5" font-weight="600" fill="#e6eaef">-6.3%</text><path d="M470,252 L380.897719312939,252 Q376.897719312939,252 376.897719312939,256 L376.897719312939,268 Q376.897719312939,272 380.897719312939,272 L470,272 Z" fill="#d95926"/><text x="116" y="266.0" text-anchor="end" font-family="system-ui,-apple-system,'Segoe UI',Roboto,Helvetica,Arial,sans-serif" font-size="12" font-weight="700" fill="#e6eaef">Nifty 50</text><text x="366.9" y="266.0" text-anchor="end" font-family="system-ui,-apple-system,'Segoe UI',Roboto,Helvetica,Arial,sans-serif" font-size="11.5" font-weight="600" fill="#e6eaef">-6.4%</text><path d="M470,286 L346.88897552824875,286 Q342.88897552824875,286 342.88897552824875,290 L342.88897552824875,302 Q342.88897552824875,306 346.88897552824875,306 L470,306 Z" fill="#d95926"/><text x="116" y="300.0" text-anchor="end" font-family="system-ui,-apple-system,'Segoe UI',Roboto,Helvetica,Arial,sans-serif" font-size="12" font-weight="700" fill="#e6eaef">Nifty 500</text><text x="332.9" y="300.0" text-anchor="end" font-family="system-ui,-apple-system,'Segoe UI',Roboto,Helvetica,Arial,sans-serif" font-size="11.5" font-weight="600" fill="#e6eaef">-8.8%</text><path d="M470,320 L335.06097850014726,320 Q331.06097850014726,320 331.06097850014726,324 L331.06097850014726,336 Q331.06097850014726,340 335.06097850014726,340 L470,340 Z" fill="#d95926"/><text x="116" y="334.0" text-anchor="end" font-family="system-ui,-apple-system,'Segoe UI',Roboto,Helvetica,Arial,sans-serif" font-size="12" font-weight="400" fill="#8a94a6">FMCG</text><text x="321.1" y="334.0" text-anchor="end" font-family="system-ui,-apple-system,'Segoe UI',Roboto,Helvetica,Arial,sans-serif" font-size="11.5" font-weight="600" fill="#e6eaef">-9.6%</text><path d="M470,354 L321.9996131512762,354 Q317.9996131512762,354 317.9996131512762,358 L317.9996131512762,370 Q317.9996131512762,374 321.9996131512762,374 L470,374 Z" fill="#d95926"/><text x="116" y="368.0" text-anchor="end" font-family="system-ui,-apple-system,'Segoe UI',Roboto,Helvetica,Arial,sans-serif" font-size="12" font-weight="700" fill="#e6eaef">Bank Nifty</text><text x="308.0" y="368.0" text-anchor="end" font-family="system-ui,-apple-system,'Segoe UI',Roboto,Helvetica,Arial,sans-serif" font-size="11.5" font-weight="600" fill="#e6eaef">-10.5%</text><path d="M470,388 L273.5767032085522,388 Q269.5767032085522,388 269.5767032085522,392 L269.5767032085522,404 Q269.5767032085522,408 273.5767032085522,408 L470,408 Z" fill="#d95926"/><text x="116" y="402.0" text-anchor="end" font-family="system-ui,-apple-system,'Segoe UI',Roboto,Helvetica,Arial,sans-serif" font-size="12" font-weight="400" fill="#8a94a6">Media</text><text x="259.6" y="402.0" text-anchor="end" font-family="system-ui,-apple-system,'Segoe UI',Roboto,Helvetica,Arial,sans-serif" font-size="11.5" font-weight="600" fill="#e6eaef">-13.8%</text><path d="M470,422 L272.67381221853395,422 Q268.67381221853395,422 268.67381221853395,426 L268.67381221853395,438 Q268.67381221853395,442 272.67381221853395,442 L470,442 Z" fill="#d95926"/><text x="116" y="436.0" text-anchor="end" font-family="system-ui,-apple-system,'Segoe UI',Roboto,Helvetica,Arial,sans-serif" font-size="12" font-weight="700" fill="#e6eaef">Midcap 100</text><text x="258.7" y="436.0" text-anchor="end" font-family="system-ui,-apple-system,'Segoe UI',Roboto,Helvetica,Arial,sans-serif" font-size="11.5" font-weight="600" fill="#e6eaef">-13.9%</text><path d="M470,456 L205.03675935821866,456 Q201.03675935821866,456 201.03675935821866,460 L201.03675935821866,472 Q201.03675935821866,476 205.03675935821866,476 L470,476 Z" fill="#d95926"/><text x="116" y="470.0" text-anchor="end" font-family="system-ui,-apple-system,'Segoe UI',Roboto,Helvetica,Arial,sans-serif" font-size="12" font-weight="400" fill="#8a94a6">PSU Bank</text><text x="191.0" y="470.0" text-anchor="end" font-family="system-ui,-apple-system,'Segoe UI',Roboto,Helvetica,Arial,sans-serif" font-size="11.5" font-weight="600" fill="#e6eaef">-18.6%</text><path d="M470,490 L178.3478260869565,490 Q174.3478260869565,490 174.3478260869565,494 L174.3478260869565,506 Q174.3478260869565,510 178.3478260869565,510 L470,510 Z" fill="#d95926"/><text x="116" y="504.0" text-anchor="end" font-family="system-ui,-apple-system,'Segoe UI',Roboto,Helvetica,Arial,sans-serif" font-size="12" font-weight="400" fill="#8a94a6">Realty</text><text x="164.3" y="504.0" text-anchor="end" font-family="system-ui,-apple-system,'Segoe UI',Roboto,Helvetica,Arial,sans-serif" font-size="11.5" font-weight="600" fill="#e6eaef">-20.4%</text><text x="810" y="76" text-anchor="end" font-family="system-ui,-apple-system,'Segoe UI',Roboto,Helvetica,Arial,sans-serif" font-size="10.5" fill="#8a94a6">bold = index · light = sector</text>
<text x="40" y="580" font-family="system-ui,-apple-system,'Segoe UI',Roboto,Helvetica,Arial,sans-serif" font-size="11" fill="#8a94a6">Source: The Retail Trader, computed from NSE / BSE daily closes</text>
</svg>