<svg xmlns="http://www.w3.org/2000/svg" viewBox="0 0 900 598" width="900" height="598" role="img" aria-label="2022-04 — month audit">
<rect width="900" height="598" fill="#0b0f14"/>
<text x="40" y="46" font-family="system-ui,-apple-system,'Segoe UI',Roboto,Helvetica,Arial,sans-serif" font-size="21" font-weight="700" fill="#e6eaef">2022-04 — month audit</text>
<text x="40" y="70" font-family="system-ui,-apple-system,'Segoe UI',Roboto,Helvetica,Arial,sans-serif" font-size="13" fill="#8a94a6">Every index and sector, 2022-04-01 to 2022-04-31</text>
<line x1="241.3" y1="98" x2="241.3" y2="538.0" stroke="#1c2430" stroke-width="1"/><text x="241.3" y="90" text-anchor="middle" font-family="system-ui,-apple-system,'Segoe UI',Roboto,Helvetica,Arial,sans-serif" font-size="10.5" fill="#8a94a6">-10%</text><line x1="355.6" y1="98" x2="355.6" y2="538.0" stroke="#1c2430" stroke-width="1"/><text x="355.6" y="90" text-anchor="middle" font-family="system-ui,-apple-system,'Segoe UI',Roboto,Helvetica,Arial,sans-serif" font-size="10.5" fill="#8a94a6">-5%</text><line x1="470.0" y1="98" x2="470.0" y2="538.0" stroke="#383835" stroke-width="1.5"/><text x="470.0" y="90" text-anchor="middle" font-family="system-ui,-apple-system,'Segoe UI',Roboto,Helvetica,Arial,sans-serif" font-size="10.5" fill="#8a94a6">0%</text><line x1="584.4" y1="98" x2="584.4" y2="538.0" stroke="#1c2430" stroke-width="1"/><text x="584.4" y="90" text-anchor="middle" font-family="system-ui,-apple-system,'Segoe UI',Roboto,Helvetica,Arial,sans-serif" font-size="10.5" fill="#8a94a6">+5%</text><line x1="698.7" y1="98" x2="698.7" y2="538.0" stroke="#1c2430" stroke-width="1"/><text x="698.7" y="90" text-anchor="middle" font-family="system-ui,-apple-system,'Segoe UI',Roboto,Helvetica,Arial,sans-serif" font-size="10.5" fill="#8a94a6">+10%</text><path d="M470,116 L586.7820676066551,116 Q590.7820676066551,116 590.7820676066551,120 L590.7820676066551,132 Q590.7820676066551,136 586.7820676066551,136 L470,136 Z" fill="#199e70"/><text x="116" y="130.0" text-anchor="end" font-family="system-ui,-apple-system,'Segoe UI',Roboto,Helvetica,Arial,sans-serif" font-size="12" font-weight="400" fill="#8a94a6">FMCG</text><text x="600.8" y="130.0" text-anchor="start" font-family="system-ui,-apple-system,'Segoe UI',Roboto,Helvetica,Arial,sans-serif" font-size="11.5" font-weight="600" fill="#e6eaef">+5.3%</text><path d="M470,150 L493.6059151627041,150 Q497.6059151627041,150 497.6059151627041,154 L497.6059151627041,166 Q497.6059151627041,170 493.6059151627041,170 L470,170 Z" fill="#199e70"/><text x="116" y="164.0" text-anchor="end" font-family="system-ui,-apple-system,'Segoe UI',Roboto,Helvetica,Arial,sans-serif" font-size="12" font-weight="400" fill="#8a94a6">PSU Bank</text><text x="507.6" y="164.0" text-anchor="start" font-family="system-ui,-apple-system,'Segoe UI',Roboto,Helvetica,Arial,sans-serif" font-size="11.5" font-weight="600" fill="#e6eaef">+1.2%</text><path d="M470,184 L480.48457765279545,184 Q484.48457765279545,184 484.48457765279545,188 L484.48457765279545,200 Q484.48457765279545,204 480.48457765279545,204 L470,204 Z" fill="#199e70"/><text x="116" y="198.0" text-anchor="end" font-family="system-ui,-apple-system,'Segoe UI',Roboto,Helvetica,Arial,sans-serif" font-size="12" font-weight="700" fill="#e6eaef">Midcap 100</text><text x="494.5" y="198.0" text-anchor="start" font-family="system-ui,-apple-system,'Segoe UI',Roboto,Helvetica,Arial,sans-serif" font-size="11.5" font-weight="600" fill="#e6eaef">+0.6%</text><path d="M470,218 L456.9328943559217,218 Q452.9328943559217,218 452.9328943559217,222 L452.9328943559217,234 Q452.9328943559217,238 456.9328943559217,238 L470,238 Z" fill="#d95926"/><text x="116" y="232.0" text-anchor="end" font-family="system-ui,-apple-system,'Segoe UI',Roboto,Helvetica,Arial,sans-serif" font-size="12" font-weight="700" fill="#e6eaef">Nifty 500</text><text x="442.9" y="232.0" text-anchor="end" font-family="system-ui,-apple-system,'Segoe UI',Roboto,Helvetica,Arial,sans-serif" font-size="11.5" font-weight="600" fill="#e6eaef">-0.7%</text><path d="M470,252 L456.0518331047667,252 Q452.0518331047667,252 452.0518331047667,256 L452.0518331047667,268 Q452.0518331047667,272 456.0518331047667,272 L470,272 Z" fill="#d95926"/><text x="116" y="266.0" text-anchor="end" font-family="system-ui,-apple-system,'Segoe UI',Roboto,Helvetica,Arial,sans-serif" font-size="12" font-weight="700" fill="#e6eaef">Bank Nifty</text><text x="442.1" y="266.0" text-anchor="end" font-family="system-ui,-apple-system,'Segoe UI',Roboto,Helvetica,Arial,sans-serif" font-size="11.5" font-weight="600" fill="#e6eaef">-0.8%</text><path d="M470,286 L453.5860420537789,286 Q449.5860420537789,286 449.5860420537789,290 L449.5860420537789,302 Q449.5860420537789,306 453.5860420537789,306 L470,306 Z" fill="#d95926"/><text x="116" y="300.0" text-anchor="end" font-family="system-ui,-apple-system,'Segoe UI',Roboto,Helvetica,Arial,sans-serif" font-size="12" font-weight="400" fill="#8a94a6">Pharma</text><text x="439.6" y="300.0" text-anchor="end" font-family="system-ui,-apple-system,'Segoe UI',Roboto,Helvetica,Arial,sans-serif" font-size="11.5" font-weight="600" fill="#e6eaef">-0.9%</text><path d="M470,320 L439.6783528552119,320 Q435.6783528552119,320 435.6783528552119,324 L435.6783528552119,336 Q435.6783528552119,340 439.6783528552119,340 L470,340 Z" fill="#d95926"/><text x="116" y="334.0" text-anchor="end" font-family="system-ui,-apple-system,'Segoe UI',Roboto,Helvetica,Arial,sans-serif" font-size="12" font-weight="400" fill="#8a94a6">Metal</text><text x="425.7" y="334.0" text-anchor="end" font-family="system-ui,-apple-system,'Segoe UI',Roboto,Helvetica,Arial,sans-serif" font-size="11.5" font-weight="600" fill="#e6eaef">-1.5%</text><path d="M470,354 L426.56898579319005,354 Q422.56898579319005,354 422.56898579319005,358 L422.56898579319005,370 Q422.56898579319005,374 426.56898579319005,374 L470,374 Z" fill="#d95926"/><text x="116" y="368.0" text-anchor="end" font-family="system-ui,-apple-system,'Segoe UI',Roboto,Helvetica,Arial,sans-serif" font-size="12" font-weight="700" fill="#e6eaef">Nifty 50</text><text x="412.6" y="368.0" text-anchor="end" font-family="system-ui,-apple-system,'Segoe UI',Roboto,Helvetica,Arial,sans-serif" font-size="11.5" font-weight="600" fill="#e6eaef">-2.1%</text><path d="M470,388 L415.1278611337679,388 Q411.1278611337679,388 411.1278611337679,392 L411.1278611337679,404 Q411.1278611337679,408 415.1278611337679,408 L470,408 Z" fill="#d95926"/><text x="116" y="402.0" text-anchor="end" font-family="system-ui,-apple-system,'Segoe UI',Roboto,Helvetica,Arial,sans-serif" font-size="12" font-weight="700" fill="#e6eaef">Sensex</text><text x="401.1" y="402.0" text-anchor="end" font-family="system-ui,-apple-system,'Segoe UI',Roboto,Helvetica,Arial,sans-serif" font-size="11.5" font-weight="600" fill="#e6eaef">-2.6%</text><path d="M470,422 L376.3111620914294,422 Q372.3111620914294,422 372.3111620914294,426 L372.3111620914294,438 Q372.3111620914294,442 376.3111620914294,442 L470,442 Z" fill="#d95926"/><text x="116" y="436.0" text-anchor="end" font-family="system-ui,-apple-system,'Segoe UI',Roboto,Helvetica,Arial,sans-serif" font-size="12" font-weight="400" fill="#8a94a6">Realty</text><text x="362.3" y="436.0" text-anchor="end" font-family="system-ui,-apple-system,'Segoe UI',Roboto,Helvetica,Arial,sans-serif" font-size="11.5" font-weight="600" fill="#e6eaef">-4.3%</text><path d="M470,456 L253.04117615901274,456 Q249.04117615901274,456 249.04117615901274,460 L249.04117615901274,472 Q249.04117615901274,476 253.04117615901274,476 L470,476 Z" fill="#d95926"/><text x="116" y="470.0" text-anchor="end" font-family="system-ui,-apple-system,'Segoe UI',Roboto,Helvetica,Arial,sans-serif" font-size="12" font-weight="400" fill="#8a94a6">Media</text><text x="239.0" y="470.0" text-anchor="end" font-family="system-ui,-apple-system,'Segoe UI',Roboto,Helvetica,Arial,sans-serif" font-size="11.5" font-weight="600" fill="#e6eaef">-9.7%</text><path d="M470,490 L178.3478260869565,490 Q174.3478260869565,490 174.3478260869565,494 L174.3478260869565,506 Q174.3478260869565,510 178.3478260869565,510 L470,510 Z" fill="#d95926"/><text x="116" y="504.0" text-anchor="end" font-family="system-ui,-apple-system,'Segoe UI',Roboto,Helvetica,Arial,sans-serif" font-size="12" font-weight="400" fill="#8a94a6">IT</text><text x="164.3" y="504.0" text-anchor="end" font-family="system-ui,-apple-system,'Segoe UI',Roboto,Helvetica,Arial,sans-serif" font-size="11.5" font-weight="600" fill="#e6eaef">-12.9%</text><text x="810" y="76" text-anchor="end" font-family="system-ui,-apple-system,'Segoe UI',Roboto,Helvetica,Arial,sans-serif" font-size="10.5" fill="#8a94a6">bold = index · light = sector</text>
<text x="40" y="580" font-family="system-ui,-apple-system,'Segoe UI',Roboto,Helvetica,Arial,sans-serif" font-size="11" fill="#8a94a6">Source: The Retail Trader, computed from NSE / BSE daily closes</text>
</svg>