<svg xmlns="http://www.w3.org/2000/svg" viewBox="0 0 900 598" width="900" height="598" role="img" aria-label="2020-03 — month audit">
<rect width="900" height="598" fill="#0b0f14"/>
<text x="40" y="46" font-family="system-ui,-apple-system,'Segoe UI',Roboto,Helvetica,Arial,sans-serif" font-size="21" font-weight="700" fill="#e6eaef">2020-03 — month audit</text>
<text x="40" y="70" font-family="system-ui,-apple-system,'Segoe UI',Roboto,Helvetica,Arial,sans-serif" font-size="13" fill="#8a94a6">Every index and sector, 2020-03-01 to 2020-03-31</text>
<line x1="235.1" y1="98" x2="235.1" y2="538.0" stroke="#1c2430" stroke-width="1"/><text x="235.1" y="90" text-anchor="middle" font-family="system-ui,-apple-system,'Segoe UI',Roboto,Helvetica,Arial,sans-serif" font-size="10.5" fill="#8a94a6">-30%</text><line x1="352.5" y1="98" x2="352.5" y2="538.0" stroke="#1c2430" stroke-width="1"/><text x="352.5" y="90" text-anchor="middle" font-family="system-ui,-apple-system,'Segoe UI',Roboto,Helvetica,Arial,sans-serif" font-size="10.5" fill="#8a94a6">-15%</text><line x1="470.0" y1="98" x2="470.0" y2="538.0" stroke="#383835" stroke-width="1.5"/><text x="470.0" y="90" text-anchor="middle" font-family="system-ui,-apple-system,'Segoe UI',Roboto,Helvetica,Arial,sans-serif" font-size="10.5" fill="#8a94a6">0%</text><line x1="587.5" y1="98" x2="587.5" y2="538.0" stroke="#1c2430" stroke-width="1"/><text x="587.5" y="90" text-anchor="middle" font-family="system-ui,-apple-system,'Segoe UI',Roboto,Helvetica,Arial,sans-serif" font-size="10.5" fill="#8a94a6">+15%</text><line x1="704.9" y1="98" x2="704.9" y2="538.0" stroke="#1c2430" stroke-width="1"/><text x="704.9" y="90" text-anchor="middle" font-family="system-ui,-apple-system,'Segoe UI',Roboto,Helvetica,Arial,sans-serif" font-size="10.5" fill="#8a94a6">+30%</text><path d="M470,116 L432.6314143506354,116 Q428.6314143506354,116 428.6314143506354,120 L428.6314143506354,132 Q428.6314143506354,136 432.6314143506354,136 L470,136 Z" fill="#d95926"/><text x="116" y="130.0" text-anchor="end" font-family="system-ui,-apple-system,'Segoe UI',Roboto,Helvetica,Arial,sans-serif" font-size="12" font-weight="400" fill="#8a94a6">Pharma</text><text x="418.6" y="130.0" text-anchor="end" font-family="system-ui,-apple-system,'Segoe UI',Roboto,Helvetica,Arial,sans-serif" font-size="11.5" font-weight="600" fill="#e6eaef">-5.3%</text><path d="M470,150 L420.80327041167436,150 Q416.80327041167436,150 416.80327041167436,154 L416.80327041167436,166 Q416.80327041167436,170 420.80327041167436,170 L470,170 Z" fill="#d95926"/><text x="116" y="164.0" text-anchor="end" font-family="system-ui,-apple-system,'Segoe UI',Roboto,Helvetica,Arial,sans-serif" font-size="12" font-weight="400" fill="#8a94a6">FMCG</text><text x="406.8" y="164.0" text-anchor="end" font-family="system-ui,-apple-system,'Segoe UI',Roboto,Helvetica,Arial,sans-serif" font-size="11.5" font-weight="600" fill="#e6eaef">-6.8%</text><path d="M470,184 L347.9186545298493,184 Q343.9186545298493,184 343.9186545298493,188 L343.9186545298493,200 Q343.9186545298493,204 347.9186545298493,204 L470,204 Z" fill="#d95926"/><text x="116" y="198.0" text-anchor="end" font-family="system-ui,-apple-system,'Segoe UI',Roboto,Helvetica,Arial,sans-serif" font-size="12" font-weight="400" fill="#8a94a6">IT</text><text x="333.9" y="198.0" text-anchor="end" font-family="system-ui,-apple-system,'Segoe UI',Roboto,Helvetica,Arial,sans-serif" font-size="11.5" font-weight="600" fill="#e6eaef">-16.1%</text><path d="M470,218 L293.4672800121979,218 Q289.4672800121979,218 289.4672800121979,222 L289.4672800121979,234 Q289.4672800121979,238 293.4672800121979,238 L470,238 Z" fill="#d95926"/><text x="116" y="232.0" text-anchor="end" font-family="system-ui,-apple-system,'Segoe UI',Roboto,Helvetica,Arial,sans-serif" font-size="12" font-weight="700" fill="#e6eaef">Sensex</text><text x="279.5" y="232.0" text-anchor="end" font-family="system-ui,-apple-system,'Segoe UI',Roboto,Helvetica,Arial,sans-serif" font-size="11.5" font-weight="600" fill="#e6eaef">-23.1%</text><path d="M470,252 L291.9555705342304,252 Q287.9555705342304,252 287.9555705342304,256 L287.9555705342304,268 Q287.9555705342304,272 291.9555705342304,272 L470,272 Z" fill="#d95926"/><text x="116" y="266.0" text-anchor="end" font-family="system-ui,-apple-system,'Segoe UI',Roboto,Helvetica,Arial,sans-serif" font-size="12" font-weight="700" fill="#e6eaef">Nifty 50</text><text x="278.0" y="266.0" text-anchor="end" font-family="system-ui,-apple-system,'Segoe UI',Roboto,Helvetica,Arial,sans-serif" font-size="11.5" font-weight="600" fill="#e6eaef">-23.2%</text><path d="M470,286 L284.133521775897,286 Q280.133521775897,286 280.133521775897,290 L280.133521775897,302 Q280.133521775897,306 284.133521775897,306 L470,306 Z" fill="#d95926"/><text x="116" y="300.0" text-anchor="end" font-family="system-ui,-apple-system,'Segoe UI',Roboto,Helvetica,Arial,sans-serif" font-size="12" font-weight="700" fill="#e6eaef">Nifty 500</text><text x="270.1" y="300.0" text-anchor="end" font-family="system-ui,-apple-system,'Segoe UI',Roboto,Helvetica,Arial,sans-serif" font-size="11.5" font-weight="600" fill="#e6eaef">-24.2%</text><path d="M470,320 L243.8317065389915,320 Q239.8317065389915,320 239.8317065389915,324 L239.8317065389915,336 Q239.8317065389915,340 243.8317065389915,340 L470,340 Z" fill="#d95926"/><text x="116" y="334.0" text-anchor="end" font-family="system-ui,-apple-system,'Segoe UI',Roboto,Helvetica,Arial,sans-serif" font-size="12" font-weight="400" fill="#8a94a6">Metal</text><text x="229.8" y="334.0" text-anchor="end" font-family="system-ui,-apple-system,'Segoe UI',Roboto,Helvetica,Arial,sans-serif" font-size="11.5" font-weight="600" fill="#e6eaef">-29.4%</text><path d="M470,354 L236.88886565594183,354 Q232.88886565594183,354 232.88886565594183,358 L232.88886565594183,370 Q232.88886565594183,374 236.88886565594183,374 L470,374 Z" fill="#d95926"/><text x="116" y="368.0" text-anchor="end" font-family="system-ui,-apple-system,'Segoe UI',Roboto,Helvetica,Arial,sans-serif" font-size="12" font-weight="700" fill="#e6eaef">Midcap 100</text><text x="222.9" y="368.0" text-anchor="end" font-family="system-ui,-apple-system,'Segoe UI',Roboto,Helvetica,Arial,sans-serif" font-size="11.5" font-weight="600" fill="#e6eaef">-30.3%</text><path d="M470,388 L224.14648663361152,388 Q220.14648663361152,388 220.14648663361152,392 L220.14648663361152,404 Q220.14648663361152,408 224.14648663361152,408 L470,408 Z" fill="#d95926"/><text x="116" y="402.0" text-anchor="end" font-family="system-ui,-apple-system,'Segoe UI',Roboto,Helvetica,Arial,sans-serif" font-size="12" font-weight="400" fill="#8a94a6">PSU Bank</text><text x="210.1" y="402.0" text-anchor="end" font-family="system-ui,-apple-system,'Segoe UI',Roboto,Helvetica,Arial,sans-serif" font-size="11.5" font-weight="600" fill="#e6eaef">-31.9%</text><path d="M470,422 L205.24102546383392,422 Q201.24102546383392,422 201.24102546383392,426 L201.24102546383392,438 Q201.24102546383392,442 205.24102546383392,442 L470,442 Z" fill="#d95926"/><text x="116" y="436.0" text-anchor="end" font-family="system-ui,-apple-system,'Segoe UI',Roboto,Helvetica,Arial,sans-serif" font-size="12" font-weight="700" fill="#e6eaef">Bank Nifty</text><text x="191.2" y="436.0" text-anchor="end" font-family="system-ui,-apple-system,'Segoe UI',Roboto,Helvetica,Arial,sans-serif" font-size="11.5" font-weight="600" fill="#e6eaef">-34.3%</text><path d="M470,456 L180.77022049204993,456 Q176.77022049204993,456 176.77022049204993,460 L176.77022049204993,472 Q176.77022049204993,476 180.77022049204993,476 L470,476 Z" fill="#d95926"/><text x="116" y="470.0" text-anchor="end" font-family="system-ui,-apple-system,'Segoe UI',Roboto,Helvetica,Arial,sans-serif" font-size="12" font-weight="400" fill="#8a94a6">Realty</text><text x="166.8" y="470.0" text-anchor="end" font-family="system-ui,-apple-system,'Segoe UI',Roboto,Helvetica,Arial,sans-serif" font-size="11.5" font-weight="600" fill="#e6eaef">-37.4%</text><path d="M470,490 L178.3478260869565,490 Q174.3478260869565,490 174.3478260869565,494 L174.3478260869565,506 Q174.3478260869565,510 178.3478260869565,510 L470,510 Z" fill="#d95926"/><text x="116" y="504.0" text-anchor="end" font-family="system-ui,-apple-system,'Segoe UI',Roboto,Helvetica,Arial,sans-serif" font-size="12" font-weight="400" fill="#8a94a6">Media</text><text x="164.3" y="504.0" text-anchor="end" font-family="system-ui,-apple-system,'Segoe UI',Roboto,Helvetica,Arial,sans-serif" font-size="11.5" font-weight="600" fill="#e6eaef">-37.8%</text><text x="810" y="76" text-anchor="end" font-family="system-ui,-apple-system,'Segoe UI',Roboto,Helvetica,Arial,sans-serif" font-size="10.5" fill="#8a94a6">bold = index · light = sector</text>
<text x="40" y="580" font-family="system-ui,-apple-system,'Segoe UI',Roboto,Helvetica,Arial,sans-serif" font-size="11" fill="#8a94a6">Source: The Retail Trader, computed from NSE / BSE daily closes</text>
</svg>