<svg xmlns="http://www.w3.org/2000/svg" viewBox="0 0 900 598" width="900" height="598" role="img" aria-label="2024-08 — month audit">
<rect width="900" height="598" fill="#0b0f14"/>
<text x="40" y="46" font-family="system-ui,-apple-system,'Segoe UI',Roboto,Helvetica,Arial,sans-serif" font-size="21" font-weight="700" fill="#e6eaef">2024-08 — month audit</text>
<text x="40" y="70" font-family="system-ui,-apple-system,'Segoe UI',Roboto,Helvetica,Arial,sans-serif" font-size="13" fill="#8a94a6">Every index and sector, 2024-08-01 to 2024-08-31</text>
<line x1="246.5" y1="98" x2="246.5" y2="538.0" stroke="#1c2430" stroke-width="1"/><text x="246.5" y="90" text-anchor="middle" font-family="system-ui,-apple-system,'Segoe UI',Roboto,Helvetica,Arial,sans-serif" font-size="10.5" fill="#8a94a6">-5%</text><line x1="470.0" y1="98" x2="470.0" y2="538.0" stroke="#383835" stroke-width="1.5"/><text x="470.0" y="90" text-anchor="middle" font-family="system-ui,-apple-system,'Segoe UI',Roboto,Helvetica,Arial,sans-serif" font-size="10.5" fill="#8a94a6">0%</text><line x1="693.5" y1="98" x2="693.5" y2="538.0" stroke="#1c2430" stroke-width="1"/><text x="693.5" y="90" text-anchor="middle" font-family="system-ui,-apple-system,'Segoe UI',Roboto,Helvetica,Arial,sans-serif" font-size="10.5" fill="#8a94a6">+5%</text><path d="M470,116 L761.6521739130435,116 Q765.6521739130435,116 765.6521739130435,120 L765.6521739130435,132 Q765.6521739130435,136 761.6521739130435,136 L470,136 Z" fill="#199e70"/><text x="116" y="130.0" text-anchor="end" font-family="system-ui,-apple-system,'Segoe UI',Roboto,Helvetica,Arial,sans-serif" font-size="12" font-weight="400" fill="#8a94a6">Pharma</text><text x="775.7" y="130.0" text-anchor="start" font-family="system-ui,-apple-system,'Segoe UI',Roboto,Helvetica,Arial,sans-serif" font-size="11.5" font-weight="600" fill="#e6eaef">+6.6%</text><path d="M470,150 L677.9056461851645,150 Q681.9056461851645,150 681.9056461851645,154 L681.9056461851645,166 Q681.9056461851645,170 677.9056461851645,170 L470,170 Z" fill="#199e70"/><text x="116" y="164.0" text-anchor="end" font-family="system-ui,-apple-system,'Segoe UI',Roboto,Helvetica,Arial,sans-serif" font-size="12" font-weight="400" fill="#8a94a6">IT</text><text x="691.9" y="164.0" text-anchor="start" font-family="system-ui,-apple-system,'Segoe UI',Roboto,Helvetica,Arial,sans-serif" font-size="11.5" font-weight="600" fill="#e6eaef">+4.7%</text><path d="M470,184 L536.3810615208891,184 Q540.3810615208891,184 540.3810615208891,188 L540.3810615208891,200 Q540.3810615208891,204 536.3810615208891,204 L470,204 Z" fill="#199e70"/><text x="116" y="198.0" text-anchor="end" font-family="system-ui,-apple-system,'Segoe UI',Roboto,Helvetica,Arial,sans-serif" font-size="12" font-weight="400" fill="#8a94a6">FMCG</text><text x="550.4" y="198.0" text-anchor="start" font-family="system-ui,-apple-system,'Segoe UI',Roboto,Helvetica,Arial,sans-serif" font-size="11.5" font-weight="600" fill="#e6eaef">+1.6%</text><path d="M470,218 L517.0102082999605,218 Q521.0102082999605,218 521.0102082999605,222 L521.0102082999605,234 Q521.0102082999605,238 517.0102082999605,238 L470,238 Z" fill="#199e70"/><text x="116" y="232.0" text-anchor="end" font-family="system-ui,-apple-system,'Segoe UI',Roboto,Helvetica,Arial,sans-serif" font-size="12" font-weight="700" fill="#e6eaef">Nifty 50</text><text x="531.0" y="232.0" text-anchor="start" font-family="system-ui,-apple-system,'Segoe UI',Roboto,Helvetica,Arial,sans-serif" font-size="11.5" font-weight="600" fill="#e6eaef">+1.1%</text><path d="M470,252 L504.7030201576764,252 Q508.7030201576764,252 508.7030201576764,256 L508.7030201576764,268 Q508.7030201576764,272 504.7030201576764,272 L470,272 Z" fill="#199e70"/><text x="116" y="266.0" text-anchor="end" font-family="system-ui,-apple-system,'Segoe UI',Roboto,Helvetica,Arial,sans-serif" font-size="12" font-weight="700" fill="#e6eaef">Nifty 500</text><text x="518.7" y="266.0" text-anchor="start" font-family="system-ui,-apple-system,'Segoe UI',Roboto,Helvetica,Arial,sans-serif" font-size="11.5" font-weight="600" fill="#e6eaef">+0.9%</text><path d="M470,286 L500.1449073369162,286 Q504.1449073369162,286 504.1449073369162,290 L504.1449073369162,302 Q504.1449073369162,306 500.1449073369162,306 L470,306 Z" fill="#199e70"/><text x="116" y="300.0" text-anchor="end" font-family="system-ui,-apple-system,'Segoe UI',Roboto,Helvetica,Arial,sans-serif" font-size="12" font-weight="700" fill="#e6eaef">Sensex</text><text x="514.1" y="300.0" text-anchor="start" font-family="system-ui,-apple-system,'Segoe UI',Roboto,Helvetica,Arial,sans-serif" font-size="11.5" font-weight="600" fill="#e6eaef">+0.8%</text><path d="M470,320 L488.40906119204504,320 Q492.40906119204504,320 492.40906119204504,324 L492.40906119204504,336 Q492.40906119204504,340 488.40906119204504,340 L470,340 Z" fill="#199e70"/><text x="116" y="334.0" text-anchor="end" font-family="system-ui,-apple-system,'Segoe UI',Roboto,Helvetica,Arial,sans-serif" font-size="12" font-weight="700" fill="#e6eaef">Midcap 100</text><text x="502.4" y="334.0" text-anchor="start" font-family="system-ui,-apple-system,'Segoe UI',Roboto,Helvetica,Arial,sans-serif" font-size="11.5" font-weight="600" fill="#e6eaef">+0.5%</text><path d="M470,354 L456.45161610049706,354 Q452.45161610049706,354 452.45161610049706,358 L452.45161610049706,370 Q452.45161610049706,374 456.45161610049706,374 L470,374 Z" fill="#d95926"/><text x="116" y="368.0" text-anchor="end" font-family="system-ui,-apple-system,'Segoe UI',Roboto,Helvetica,Arial,sans-serif" font-size="12" font-weight="700" fill="#e6eaef">Bank Nifty</text><text x="442.5" y="368.0" text-anchor="end" font-family="system-ui,-apple-system,'Segoe UI',Roboto,Helvetica,Arial,sans-serif" font-size="11.5" font-weight="600" fill="#e6eaef">-0.4%</text><path d="M470,388 L390.9097352969974,388 Q386.9097352969974,388 386.9097352969974,392 L386.9097352969974,404 Q386.9097352969974,408 390.9097352969974,408 L470,408 Z" fill="#d95926"/><text x="116" y="402.0" text-anchor="end" font-family="system-ui,-apple-system,'Segoe UI',Roboto,Helvetica,Arial,sans-serif" font-size="12" font-weight="400" fill="#8a94a6">Metal</text><text x="376.9" y="402.0" text-anchor="end" font-family="system-ui,-apple-system,'Segoe UI',Roboto,Helvetica,Arial,sans-serif" font-size="11.5" font-weight="600" fill="#e6eaef">-1.9%</text><path d="M470,422 L380.01803748212797,422 Q376.01803748212797,422 376.01803748212797,426 L376.01803748212797,438 Q376.01803748212797,442 380.01803748212797,442 L470,442 Z" fill="#d95926"/><text x="116" y="436.0" text-anchor="end" font-family="system-ui,-apple-system,'Segoe UI',Roboto,Helvetica,Arial,sans-serif" font-size="12" font-weight="400" fill="#8a94a6">Media</text><text x="366.0" y="436.0" text-anchor="end" font-family="system-ui,-apple-system,'Segoe UI',Roboto,Helvetica,Arial,sans-serif" font-size="11.5" font-weight="600" fill="#e6eaef">-2.1%</text><path d="M470,456 L309.10427202679284,456 Q305.10427202679284,456 305.10427202679284,460 L305.10427202679284,472 Q305.10427202679284,476 309.10427202679284,476 L470,476 Z" fill="#d95926"/><text x="116" y="470.0" text-anchor="end" font-family="system-ui,-apple-system,'Segoe UI',Roboto,Helvetica,Arial,sans-serif" font-size="12" font-weight="400" fill="#8a94a6">Realty</text><text x="295.1" y="470.0" text-anchor="end" font-family="system-ui,-apple-system,'Segoe UI',Roboto,Helvetica,Arial,sans-serif" font-size="11.5" font-weight="600" fill="#e6eaef">-3.7%</text><path d="M470,490 L225.55426666628645,490 Q221.55426666628645,490 221.55426666628645,494 L221.55426666628645,506 Q221.55426666628645,510 225.55426666628645,510 L470,510 Z" fill="#d95926"/><text x="116" y="504.0" text-anchor="end" font-family="system-ui,-apple-system,'Segoe UI',Roboto,Helvetica,Arial,sans-serif" font-size="12" font-weight="400" fill="#8a94a6">PSU Bank</text><text x="211.6" y="504.0" text-anchor="end" font-family="system-ui,-apple-system,'Segoe UI',Roboto,Helvetica,Arial,sans-serif" font-size="11.5" font-weight="600" fill="#e6eaef">-5.6%</text><text x="810" y="76" text-anchor="end" font-family="system-ui,-apple-system,'Segoe UI',Roboto,Helvetica,Arial,sans-serif" font-size="10.5" fill="#8a94a6">bold = index · light = sector</text>
<text x="40" y="580" font-family="system-ui,-apple-system,'Segoe UI',Roboto,Helvetica,Arial,sans-serif" font-size="11" fill="#8a94a6">Source: The Retail Trader, computed from NSE / BSE daily closes</text>
</svg>