<svg xmlns="http://www.w3.org/2000/svg" viewBox="0 0 900 598" width="900" height="598" role="img" aria-label="2025 — full year">
<rect width="900" height="598" fill="#0b0f14"/>
<text x="40" y="46" font-family="system-ui,-apple-system,'Segoe UI',Roboto,Helvetica,Arial,sans-serif" font-size="21" font-weight="700" fill="#e6eaef">2025 — full year</text>
<text x="40" y="70" font-family="system-ui,-apple-system,'Segoe UI',Roboto,Helvetica,Arial,sans-serif" font-size="13" fill="#8a94a6">Calendar year 2025</text>
<line x1="178.8" y1="98" x2="178.8" y2="538.0" stroke="#1c2430" stroke-width="1"/><text x="178.8" y="90" text-anchor="middle" font-family="system-ui,-apple-system,'Segoe UI',Roboto,Helvetica,Arial,sans-serif" font-size="10.5" fill="#8a94a6">-30%</text><line x1="275.9" y1="98" x2="275.9" y2="538.0" stroke="#1c2430" stroke-width="1"/><text x="275.9" y="90" text-anchor="middle" font-family="system-ui,-apple-system,'Segoe UI',Roboto,Helvetica,Arial,sans-serif" font-size="10.5" fill="#8a94a6">-20%</text><line x1="372.9" y1="98" x2="372.9" y2="538.0" stroke="#1c2430" stroke-width="1"/><text x="372.9" y="90" text-anchor="middle" font-family="system-ui,-apple-system,'Segoe UI',Roboto,Helvetica,Arial,sans-serif" font-size="10.5" fill="#8a94a6">-10%</text><line x1="470.0" y1="98" x2="470.0" y2="538.0" stroke="#383835" stroke-width="1.5"/><text x="470.0" y="90" text-anchor="middle" font-family="system-ui,-apple-system,'Segoe UI',Roboto,Helvetica,Arial,sans-serif" font-size="10.5" fill="#8a94a6">0%</text><line x1="567.1" y1="98" x2="567.1" y2="538.0" stroke="#1c2430" stroke-width="1"/><text x="567.1" y="90" text-anchor="middle" font-family="system-ui,-apple-system,'Segoe UI',Roboto,Helvetica,Arial,sans-serif" font-size="10.5" fill="#8a94a6">+10%</text><line x1="664.1" y1="98" x2="664.1" y2="538.0" stroke="#1c2430" stroke-width="1"/><text x="664.1" y="90" text-anchor="middle" font-family="system-ui,-apple-system,'Segoe UI',Roboto,Helvetica,Arial,sans-serif" font-size="10.5" fill="#8a94a6">+20%</text><line x1="761.2" y1="98" x2="761.2" y2="538.0" stroke="#1c2430" stroke-width="1"/><text x="761.2" y="90" text-anchor="middle" font-family="system-ui,-apple-system,'Segoe UI',Roboto,Helvetica,Arial,sans-serif" font-size="10.5" fill="#8a94a6">+30%</text><path d="M470,116 L761.6521739130435,116 Q765.6521739130435,116 765.6521739130435,120 L765.6521739130435,132 Q765.6521739130435,136 761.6521739130435,136 L470,136 Z" fill="#199e70"/><text x="116" y="130.0" text-anchor="end" font-family="system-ui,-apple-system,'Segoe UI',Roboto,Helvetica,Arial,sans-serif" font-size="12" font-weight="400" fill="#8a94a6">PSU Bank</text><text x="775.7" y="130.0" text-anchor="start" font-family="system-ui,-apple-system,'Segoe UI',Roboto,Helvetica,Arial,sans-serif" font-size="11.5" font-weight="600" fill="#e6eaef">+30.5%</text><path d="M470,150 L748.5006119316599,150 Q752.5006119316599,150 752.5006119316599,154 L752.5006119316599,166 Q752.5006119316599,170 748.5006119316599,170 L470,170 Z" fill="#199e70"/><text x="116" y="164.0" text-anchor="end" font-family="system-ui,-apple-system,'Segoe UI',Roboto,Helvetica,Arial,sans-serif" font-size="12" font-weight="400" fill="#8a94a6">Metal</text><text x="762.5" y="164.0" text-anchor="start" font-family="system-ui,-apple-system,'Segoe UI',Roboto,Helvetica,Arial,sans-serif" font-size="11.5" font-weight="600" fill="#e6eaef">+29.1%</text><path d="M470,184 L632.4326260543455,184 Q636.4326260543455,184 636.4326260543455,188 L636.4326260543455,200 Q636.4326260543455,204 632.4326260543455,204 L470,204 Z" fill="#199e70"/><text x="116" y="198.0" text-anchor="end" font-family="system-ui,-apple-system,'Segoe UI',Roboto,Helvetica,Arial,sans-serif" font-size="12" font-weight="700" fill="#e6eaef">Bank Nifty</text><text x="646.4" y="198.0" text-anchor="start" font-family="system-ui,-apple-system,'Segoe UI',Roboto,Helvetica,Arial,sans-serif" font-size="11.5" font-weight="600" fill="#e6eaef">+17.1%</text><path d="M470,218 L567.9937755243583,218 Q571.9937755243583,218 571.9937755243583,222 L571.9937755243583,234 Q571.9937755243583,238 567.9937755243583,238 L470,238 Z" fill="#199e70"/><text x="116" y="232.0" text-anchor="end" font-family="system-ui,-apple-system,'Segoe UI',Roboto,Helvetica,Arial,sans-serif" font-size="12" font-weight="700" fill="#e6eaef">Nifty 50</text><text x="582.0" y="232.0" text-anchor="start" font-family="system-ui,-apple-system,'Segoe UI',Roboto,Helvetica,Arial,sans-serif" font-size="11.5" font-weight="600" fill="#e6eaef">+10.5%</text><path d="M470,252 L553.9590944079678,252 Q557.9590944079678,252 557.9590944079678,256 L557.9590944079678,268 Q557.9590944079678,272 553.9590944079678,272 L470,272 Z" fill="#199e70"/><text x="116" y="266.0" text-anchor="end" font-family="system-ui,-apple-system,'Segoe UI',Roboto,Helvetica,Arial,sans-serif" font-size="12" font-weight="700" fill="#e6eaef">Sensex</text><text x="568.0" y="266.0" text-anchor="start" font-family="system-ui,-apple-system,'Segoe UI',Roboto,Helvetica,Arial,sans-serif" font-size="11.5" font-weight="600" fill="#e6eaef">+9.1%</text><path d="M470,286 L530.8966388154792,286 Q534.8966388154792,286 534.8966388154792,290 L534.8966388154792,302 Q534.8966388154792,306 530.8966388154792,306 L470,306 Z" fill="#199e70"/><text x="116" y="300.0" text-anchor="end" font-family="system-ui,-apple-system,'Segoe UI',Roboto,Helvetica,Arial,sans-serif" font-size="12" font-weight="700" fill="#e6eaef">Nifty 500</text><text x="544.9" y="300.0" text-anchor="start" font-family="system-ui,-apple-system,'Segoe UI',Roboto,Helvetica,Arial,sans-serif" font-size="11.5" font-weight="600" fill="#e6eaef">+6.7%</text><path d="M470,320 L521.740133712801,320 Q525.740133712801,320 525.740133712801,324 L525.740133712801,336 Q525.740133712801,340 521.740133712801,340 L470,340 Z" fill="#199e70"/><text x="116" y="334.0" text-anchor="end" font-family="system-ui,-apple-system,'Segoe UI',Roboto,Helvetica,Arial,sans-serif" font-size="12" font-weight="700" fill="#e6eaef">Midcap 100</text><text x="535.7" y="334.0" text-anchor="start" font-family="system-ui,-apple-system,'Segoe UI',Roboto,Helvetica,Arial,sans-serif" font-size="11.5" font-weight="600" fill="#e6eaef">+5.7%</text><path d="M470,354 L451.3764788224929,354 Q447.3764788224929,354 447.3764788224929,358 L447.3764788224929,370 Q447.3764788224929,374 451.3764788224929,374 L470,374 Z" fill="#d95926"/><text x="116" y="368.0" text-anchor="end" font-family="system-ui,-apple-system,'Segoe UI',Roboto,Helvetica,Arial,sans-serif" font-size="12" font-weight="400" fill="#8a94a6">FMCG</text><text x="437.4" y="368.0" text-anchor="end" font-family="system-ui,-apple-system,'Segoe UI',Roboto,Helvetica,Arial,sans-serif" font-size="11.5" font-weight="600" fill="#e6eaef">-2.3%</text><path d="M470,388 L445.45423143834796,388 Q441.45423143834796,388 441.45423143834796,392 L441.45423143834796,404 Q441.45423143834796,408 445.45423143834796,408 L470,408 Z" fill="#d95926"/><text x="116" y="402.0" text-anchor="end" font-family="system-ui,-apple-system,'Segoe UI',Roboto,Helvetica,Arial,sans-serif" font-size="12" font-weight="400" fill="#8a94a6">Pharma</text><text x="431.5" y="402.0" text-anchor="end" font-family="system-ui,-apple-system,'Segoe UI',Roboto,Helvetica,Arial,sans-serif" font-size="11.5" font-weight="600" fill="#e6eaef">-2.9%</text><path d="M470,422 L351.8632836148489,422 Q347.8632836148489,422 347.8632836148489,426 L347.8632836148489,438 Q347.8632836148489,442 351.8632836148489,442 L470,442 Z" fill="#d95926"/><text x="116" y="436.0" text-anchor="end" font-family="system-ui,-apple-system,'Segoe UI',Roboto,Helvetica,Arial,sans-serif" font-size="12" font-weight="400" fill="#8a94a6">IT</text><text x="337.9" y="436.0" text-anchor="end" font-family="system-ui,-apple-system,'Segoe UI',Roboto,Helvetica,Arial,sans-serif" font-size="11.5" font-weight="600" fill="#e6eaef">-12.6%</text><path d="M470,456 L313.15626473525026,456 Q309.15626473525026,456 309.15626473525026,460 L309.15626473525026,472 Q309.15626473525026,476 313.15626473525026,476 L470,476 Z" fill="#d95926"/><text x="116" y="470.0" text-anchor="end" font-family="system-ui,-apple-system,'Segoe UI',Roboto,Helvetica,Arial,sans-serif" font-size="12" font-weight="400" fill="#8a94a6">Realty</text><text x="299.2" y="470.0" text-anchor="end" font-family="system-ui,-apple-system,'Segoe UI',Roboto,Helvetica,Arial,sans-serif" font-size="11.5" font-weight="600" fill="#e6eaef">-16.6%</text><path d="M470,490 L274.77525648965025,490 Q270.77525648965025,490 270.77525648965025,494 L270.77525648965025,506 Q270.77525648965025,510 274.77525648965025,510 L470,510 Z" fill="#d95926"/><text x="116" y="504.0" text-anchor="end" font-family="system-ui,-apple-system,'Segoe UI',Roboto,Helvetica,Arial,sans-serif" font-size="12" font-weight="400" fill="#8a94a6">Media</text><text x="260.8" y="504.0" text-anchor="end" font-family="system-ui,-apple-system,'Segoe UI',Roboto,Helvetica,Arial,sans-serif" font-size="11.5" font-weight="600" fill="#e6eaef">-20.5%</text><text x="810" y="76" text-anchor="end" font-family="system-ui,-apple-system,'Segoe UI',Roboto,Helvetica,Arial,sans-serif" font-size="10.5" fill="#8a94a6">bold = index · light = sector</text>
<text x="40" y="580" font-family="system-ui,-apple-system,'Segoe UI',Roboto,Helvetica,Arial,sans-serif" font-size="11" fill="#8a94a6">Source: The Retail Trader, computed from NSE / BSE daily closes</text>
</svg>